<?xml version="1.0" standalone="no"?>
<!DOCTYPE svg PUBLIC "-//W3C//DTD SVG 20010904//EN"
 "http://www.w3.org/TR/2001/REC-SVG-20010904/DTD/svg10.dtd">
<svg version="1.0" xmlns="http://www.w3.org/2000/svg"
 width="1104.000000pt" height="1105.000000pt" viewBox="0 0 1104.000000 1105.000000"
 preserveAspectRatio="xMidYMid meet">

<g transform="translate(0.000000,1105.000000) scale(0.100000,-0.100000)"
fill="#000000" stroke="none">
<path d="M1211 10782 c-61 -23 -142 -99 -179 -170 -47 -88 -98 -253 -118 -377
-18 -121 -16 -244 11 -540 15 -162 68 -437 110 -575 12 -41 26 -86 30 -100 4
-14 10 -81 15 -150 5 -69 15 -159 22 -200 8 -43 12 -114 10 -168 -4 -82 -7
-94 -26 -107 -12 -8 -92 -24 -177 -35 -165 -22 -405 -63 -468 -80 -75 -20 -87
-58 -97 -314 l-7 -163 29 -53 c20 -37 25 -54 17 -57 -15 -6 1 -40 59 -126 59
-87 65 -106 97 -333 66 -454 152 -796 257 -1022 40 -85 120 -217 164 -267 10
-11 30 -42 45 -70 15 -27 31 -55 37 -62 5 -7 8 -22 7 -35 -2 -13 3 -34 10 -47
12 -22 11 -26 -9 -41 -22 -17 -23 -21 -12 -72 6 -31 8 -65 6 -76 -3 -11 2 -31
11 -45 14 -22 14 -26 0 -40 -19 -19 -19 -41 0 -92 8 -22 14 -55 15 -74 0 -35
22 -60 53 -61 24 0 21 -13 -5 -25 -32 -14 -36 -67 -7 -94 18 -17 20 -23 9 -36
-10 -12 -10 -18 0 -30 6 -8 9 -23 5 -34 -3 -10 -1 -22 5 -26 5 -3 10 -14 10
-24 0 -9 9 -36 20 -59 18 -37 24 -41 45 -36 19 5 25 2 25 -10 0 -9 -7 -16 -15
-16 -20 0 -19 -26 1 -34 9 -3 28 -6 42 -6 l27 0 -25 -20 -25 -20 37 -35 c21
-20 38 -41 38 -47 0 -6 11 -25 24 -43 13 -17 26 -40 28 -50 3 -20 55 -75 70
-75 5 0 15 -15 23 -32 15 -38 50 -73 81 -82 12 -4 36 -22 55 -40 19 -19 63
-46 99 -60 36 -15 82 -36 103 -47 21 -11 54 -22 75 -25 33 -4 90 -21 147 -44
11 -4 45 -13 75 -19 30 -7 64 -20 75 -31 12 -11 42 -24 68 -29 26 -5 56 -16
66 -25 10 -9 27 -16 38 -16 11 0 35 -8 54 -17 19 -10 52 -18 74 -18 24 0 40
-5 41 -12 1 -7 2 -17 3 -22 0 -4 20 -11 44 -15 119 -17 145 -24 181 -49 26
-18 43 -24 54 -18 22 12 52 1 52 -20 0 -30 19 -32 55 -5 34 26 65 34 65 17 0
-18 54 -23 66 -7 9 12 22 15 60 10 27 -3 58 -6 69 -7 11 -1 26 -6 33 -11 8 -5
20 -2 32 9 23 21 46 14 61 -19 7 -14 19 -27 28 -29 13 -4 11 -6 -6 -12 -35
-11 -35 -33 -1 -65 34 -33 53 -38 62 -15 7 20 29 19 42 -3 7 -10 43 -33 80
-52 38 -18 82 -45 98 -59 50 -46 86 -85 86 -95 0 -13 41 -46 57 -46 7 0 16 -7
19 -15 9 -24 26 -5 20 21 -6 21 -3 24 23 24 19 0 32 -6 35 -17 8 -23 69 -63
96 -63 19 0 20 1 5 30 -21 41 -19 53 7 29 51 -46 136 -100 173 -111 22 -6 46
-16 53 -21 7 -5 30 -11 51 -12 30 -2 38 1 34 11 -3 8 -15 14 -28 14 -24 0 -49
22 -38 33 13 13 73 7 129 -14 45 -17 61 -19 78 -10 30 16 65 17 109 2 44 -15
91 -7 119 21 17 17 29 19 68 15 43 -5 109 8 126 26 4 4 20 7 36 7 21 0 28 5
28 20 0 11 8 24 18 27 9 4 32 17 51 30 19 13 44 23 57 23 13 0 25 8 29 18 5
19 44 42 70 42 8 0 19 9 25 21 7 12 18 18 26 15 9 -4 14 2 14 17 0 30 9 39 52
59 20 9 44 30 54 47 14 24 23 29 41 25 19 -5 25 -1 34 25 6 17 15 28 21 25 5
-4 23 3 39 15 15 11 33 21 40 21 6 0 22 9 36 20 31 24 80 26 112 4 20 -15 24
-15 38 -1 14 13 13 21 -4 68 -10 30 -41 87 -68 127 -82 121 -115 176 -109 181
6 6 81 -72 101 -104 46 -75 119 -181 125 -183 4 -2 8 -12 8 -21 0 -10 9 -26
20 -36 11 -10 20 -23 20 -29 0 -7 15 -20 33 -31 17 -10 35 -23 38 -28 8 -12
59 -1 59 12 0 5 -7 16 -15 25 -16 16 -21 56 -6 56 5 0 20 -19 33 -42 17 -32
30 -44 51 -46 15 -2 33 -12 39 -22 9 -14 20 -17 45 -13 37 6 63 -10 63 -39 0
-11 9 -27 20 -36 15 -14 20 -31 20 -82 4 -212 6 -266 14 -308 5 -28 4 -47 -4
-57 -8 -10 -8 -24 -2 -49 6 -19 7 -37 4 -41 -4 -3 -7 -56 -8 -118 -1 -95 -4
-112 -18 -115 -17 -4 -21 -22 -7 -38 5 -5 12 -19 15 -30 5 -17 2 -23 -15 -27
-20 -5 -21 -11 -16 -59 3 -29 11 -79 17 -111 6 -33 8 -66 5 -75 -10 -22 -17
-60 -19 -97 -1 -16 -8 -41 -15 -54 -11 -20 -11 -37 0 -100 16 -86 14 -112 -8
-154 -12 -24 -13 -34 -3 -53 7 -13 9 -30 5 -41 -11 -25 -13 -133 -3 -139 13
-8 -2 -237 -17 -249 -28 -23 -44 -58 -35 -76 13 -23 1 -106 -16 -120 -17 -14
-18 -43 -4 -70 9 -15 7 -21 -6 -26 -9 -3 -27 -17 -41 -30 -22 -23 -23 -26 -8
-37 15 -11 15 -13 1 -25 -20 -17 -20 -35 -1 -51 21 -17 19 -27 -6 -33 -18 -5
-20 -11 -15 -33 8 -29 -15 -64 -42 -64 -10 0 -12 -5 -6 -17 4 -10 8 -68 10
-128 2 -61 7 -121 12 -134 5 -14 5 -43 0 -70 -5 -25 -9 -95 -9 -156 0 -60 -5
-115 -10 -122 -7 -8 -7 -18 0 -32 15 -27 14 -34 -5 -27 -9 4 -23 1 -30 -5 -11
-9 -11 -13 1 -26 8 -8 15 -25 15 -39 0 -13 4 -24 10 -24 5 0 13 -12 16 -26 4
-14 21 -50 39 -80 23 -38 31 -61 27 -80 -3 -18 -1 -25 6 -20 10 6 52 -68 52
-92 0 -4 11 -30 24 -58 17 -35 20 -51 12 -56 -6 -4 732 -8 1641 -8 l1652 0
-15 44 c-23 68 -90 193 -142 265 -25 36 -115 137 -200 225 -168 174 -263 298
-322 421 -40 82 -135 341 -208 565 -61 185 -160 497 -179 560 -52 175 -250
627 -323 735 -11 17 -20 43 -20 58 0 33 -20 75 -48 100 -10 10 -27 37 -38 60
-10 23 -38 66 -63 94 -106 121 -120 140 -126 166 -5 18 -20 34 -44 47 -55 27
-63 42 -56 93 6 40 4 45 -20 61 -21 14 -121 106 -160 147 -84 89 -168 164
-202 179 -35 15 -43 24 -49 54 -7 41 -28 56 -74 56 -38 0 -77 19 -109 54 -13
14 -36 28 -52 31 -15 4 -45 19 -66 34 -21 15 -78 40 -128 55 -49 16 -106 38
-125 49 -52 30 -203 57 -214 38 -13 -20 -45 -12 -104 27 -70 46 -112 82 -112
96 0 6 -7 24 -15 39 -8 15 -12 34 -8 42 6 17 -21 63 -49 83 -14 10 -16 17 -9
26 7 8 7 24 2 44 -6 19 -6 34 0 37 5 4 9 31 9 61 0 33 6 64 16 79 12 19 13 28
3 47 -18 36 -41 58 -58 58 -16 0 -73 39 -59 40 4 0 25 -9 47 -21 58 -30 77
-23 72 26 -7 80 -11 131 -12 155 0 14 -7 32 -16 42 -13 14 -13 19 0 40 8 12
18 36 21 51 l7 28 292 -7 c269 -6 302 -5 415 15 167 28 280 76 425 179 86 62
218 241 290 394 95 202 202 556 272 898 39 192 68 284 109 343 44 64 56 125
56 290 0 119 0 119 -29 146 -16 15 -131 76 -255 134 -533 252 -838 339 -1365
386 -65 6 -107 15 -113 23 -14 21 -3 111 18 154 83 160 246 418 364 574 176
234 249 359 327 559 74 192 93 331 52 372 -19 19 -30 21 -98 17 -89 -6 -251
-56 -321 -99 -26 -16 -50 -29 -53 -29 -7 0 -129 -78 -167 -108 -14 -10 -56
-37 -95 -60 -87 -50 -380 -243 -417 -273 -15 -12 -44 -28 -64 -35 -20 -7 -49
-24 -63 -39 -19 -17 -33 -23 -46 -19 -13 5 -16 4 -11 -4 5 -8 -1 -12 -18 -12
-14 0 -26 -4 -26 -10 0 -5 -7 -10 -15 -10 -8 0 -15 -7 -15 -15 0 -17 -39 -36
-80 -39 -14 -2 -38 -8 -54 -15 -15 -6 -71 -18 -124 -27 -53 -8 -99 -17 -104
-20 -4 -3 -45 2 -90 10 -46 8 -123 16 -173 17 -70 2 -102 8 -143 27 -62 28
-85 24 -76 -13 3 -14 4 -25 1 -25 -3 0 -24 16 -47 35 -23 19 -46 35 -51 35
-13 0 -30 -48 -27 -73 4 -27 -22 -34 -29 -8 -6 23 -29 28 -36 9 -7 -19 -30 6
-32 34 -1 13 -8 23 -16 23 -10 0 -13 -10 -12 -32 2 -39 -9 -42 -43 -8 -23 23
-51 35 -40 17 3 -5 -6 -16 -20 -27 -19 -14 -22 -21 -12 -32 8 -10 13 -11 18
-2 5 6 15 -8 25 -35 10 -26 26 -51 37 -57 10 -5 18 -15 18 -22 0 -7 10 -17 22
-22 32 -14 33 -40 3 -72 l-26 -28 1 35 c3 52 1 57 -15 36 -17 -23 -36 -11 -55
34 -7 17 -18 31 -24 32 -6 0 -15 2 -21 2 -5 1 -15 5 -22 9 -6 4 -18 4 -27 1
-12 -5 -16 1 -16 24 0 44 -10 65 -25 52 -8 -7 -18 -3 -35 15 -28 30 -54 32
-72 6 -15 -20 -31 -17 -41 9 -3 9 -6 4 -6 -12 -1 -20 -5 -26 -16 -22 -8 3 -22
-1 -31 -10 -15 -15 -18 -15 -38 6 -31 32 -66 92 -66 113 0 13 -6 16 -25 11
-22 -6 -25 -3 -25 20 0 22 -3 25 -20 20 -11 -3 -29 -9 -41 -12 -15 -5 -22 -1
-26 15 -4 16 -11 21 -24 18 -10 -3 -25 4 -35 14 -21 24 -42 24 -66 2 -17 -15
-20 -15 -28 -3 -8 13 -13 13 -31 2 -11 -7 -23 -11 -26 -8 -8 8 7 26 23 26 8 0
12 5 9 10 -4 6 -15 8 -26 5 -10 -4 -28 -4 -38 0 -16 5 -18 13 -14 48 l4 42
-19 -22 c-13 -15 -23 -18 -33 -12 -8 5 -22 9 -31 9 -10 0 -26 8 -37 19 -21 21
-102 35 -177 32 -29 -2 -55 2 -58 8 -4 6 -20 11 -36 11 -16 0 -31 4 -34 9 -8
12 -57 21 -149 26 -43 3 -85 9 -94 14 -11 5 -26 5 -41 -2 -14 -7 -26 -7 -30
-1 -4 5 -29 27 -57 48 -94 75 -247 231 -299 305 -28 41 -85 127 -126 192 -388
608 -665 922 -879 995 -78 27 -130 29 -190 6z m2976 -2004 c-3 -8 -6 -5 -6 6
-1 11 2 17 5 13 3 -3 4 -12 1 -19z m-39 -53 c7 -16 17 -23 27 -19 10 4 18 -3
25 -21 14 -37 8 -40 -30 -17 -37 23 -64 58 -55 72 10 16 21 11 33 -15z m-93
-115 c3 -5 1 -10 -4 -10 -6 0 -11 5 -11 10 0 6 2 10 4 10 3 0 8 -4 11 -10z
m259 -30 c-1 -42 -19 -58 -33 -31 -9 15 -9 27 -1 41 16 30 35 24 34 -10z m46
10 c0 -11 5 -20 10 -20 6 0 10 5 10 10 0 25 21 6 40 -36 23 -53 27 -85 8 -66
-16 16 -28 15 -28 -3 0 -8 -6 -15 -14 -15 -20 0 -46 28 -40 43 2 7 0 34 -5 60
-7 37 -6 47 5 47 8 0 14 -9 14 -20z m370 10 c0 -5 -7 -10 -15 -10 -8 0 -15 5
-15 10 0 6 7 10 15 10 8 0 15 -4 15 -10z m-202 -118 c2 -7 -2 -10 -12 -6 -9 3
-16 11 -16 16 0 13 23 5 28 -10z m-2416 -20 c22 -22 -9 -32 -97 -32 -93 0
-121 12 -90 36 25 19 167 16 187 -4z m2332 -53 c-10 -16 -24 -9 -24 12 0 18 2
19 15 9 8 -7 12 -16 9 -21z m260 -41 c4 -21 3 -38 -2 -38 -12 0 -43 80 -36 92
10 16 31 -14 38 -54z m-242 -13 c13 -28 33 -33 42 -10 3 8 12 15 20 15 24 0
38 -37 31 -79 -4 -27 -2 -41 9 -50 16 -13 20 -9 30 32 4 17 1 35 -9 50 -8 13
-12 27 -8 30 13 14 23 6 23 -17 0 -14 4 -27 10 -31 5 -3 14 -32 21 -65 13 -70
39 -102 39 -51 0 18 5 42 11 53 11 21 12 21 25 3 8 -10 14 -29 14 -42 0 -13 4
-23 9 -23 11 0 21 36 21 80 0 51 21 23 26 -36 4 -55 8 -61 29 -44 12 10 16 9
21 -6 3 -11 13 -37 22 -58 13 -30 16 -65 14 -143 -1 -57 2 -103 6 -103 15 0
32 50 26 73 -6 27 11 77 27 77 8 0 10 -12 6 -36 -6 -37 6 -84 21 -84 5 0 14
10 19 23 11 22 11 22 24 -7 11 -23 11 -30 1 -34 -7 -2 -11 -19 -11 -40 2 -32
3 -33 6 -9 4 27 6 28 22 13 17 -16 19 -15 29 11 6 15 12 39 14 53 5 38 23 20
23 -22 0 -20 3 -40 8 -44 14 -15 7 -64 -10 -70 -10 -3 -25 -9 -33 -14 -8 -5
-40 -24 -70 -42 l-55 -33 -170 1 c-182 1 -269 14 -309 45 -13 10 -31 17 -39
14 -14 -6 -36 20 -50 58 -4 12 -3 16 4 11 18 -11 67 45 74 84 10 59 15 72 30
72 28 0 35 82 8 112 -9 10 -13 21 -9 26 4 4 14 -2 22 -12 13 -18 14 -15 14 35
0 30 -3 85 -7 122 -5 55 -9 67 -21 62 -19 -7 -32 12 -32 48 0 34 17 35 32 2z
m-2131 -12 c25 -25 -3 -36 -75 -29 -79 7 -102 20 -65 36 29 12 126 7 140 -7z
m3120 -366 c-8 -8 -11 -5 -11 9 0 27 14 41 18 19 2 -9 -1 -22 -7 -28z m369 28
c0 -2 -10 -9 -22 -15 -22 -11 -22 -10 -4 4 21 17 26 19 26 11z m-1370 -26 c0
-5 -7 -9 -15 -9 -15 0 -20 12 -9 23 8 8 24 -1 24 -14z m980 -34 c0 -13 -25
-55 -32 -55 -6 0 -7 6 -4 13 3 6 9 20 12 30 6 15 24 25 24 12z m-261 -114
c-12 -41 -29 -55 -29 -26 0 20 30 79 36 72 3 -3 0 -23 -7 -46z m-877 -3 c-7
-7 -12 -8 -12 -2 0 14 12 26 19 19 2 -3 -1 -11 -7 -17z m-2100 -285 c35 -33
35 -43 2 -82 -32 -39 -57 -39 -94 -2 -42 42 -49 79 -19 104 30 24 73 16 111
-20z m2437 -398 c30 -15 63 -50 80 -82 28 -54 6 -56 -98 -7 -42 20 -100 43
-128 52 -29 9 -51 22 -50 27 11 33 139 40 196 10z m-135 -280 c8 -8 21 -15 29
-15 8 0 17 7 21 15 10 27 22 16 22 -22 0 -57 26 -196 39 -213 6 -8 22 -35 34
-59 12 -24 64 -87 116 -140 51 -53 102 -107 113 -121 20 -26 82 -172 82 -194
0 -6 9 -29 20 -51 11 -22 20 -46 20 -55 0 -8 10 -31 23 -50 12 -19 37 -69 56
-110 18 -41 51 -111 72 -155 22 -44 39 -86 39 -93 0 -7 6 -23 14 -35 8 -12 20
-53 27 -92 6 -38 16 -76 21 -83 6 -6 8 -25 5 -41 -5 -24 -2 -31 14 -36 25 -8
69 -49 84 -78 9 -18 18 -21 53 -19 25 2 42 -1 42 -7 0 -6 -4 -11 -8 -11 -5 0
-22 -14 -38 -30 -44 -46 -135 -82 -149 -60 -3 5 -13 10 -22 10 -9 0 -22 8 -29
18 -10 14 -15 15 -25 5 -16 -16 -53 -17 -78 -1 -23 14 -111 -9 -111 -29 0 -20
-25 -26 -49 -14 -17 10 -20 9 -15 -4 4 -8 15 -15 25 -15 23 0 24 -9 3 -25 -15
-10 -15 -13 2 -29 14 -14 29 -17 66 -14 27 3 51 1 54 -3 8 -13 34 -11 34 2 0
6 -9 13 -20 16 -19 5 -28 31 -12 35 54 11 132 -11 132 -38 0 -6 25 -14 57 -17
46 -5 59 -3 69 11 9 13 15 14 26 5 9 -8 19 -9 28 -3 8 6 28 10 43 10 26 0 28
2 21 35 -5 31 -4 35 14 35 12 0 23 -4 27 -10 3 -5 31 -17 63 -26 31 -10 66
-25 77 -34 11 -9 37 -24 57 -33 88 -40 108 -51 108 -59 0 -5 -4 -6 -10 -3 -5
3 -18 8 -27 10 -10 2 -47 14 -82 27 -47 16 -66 19 -69 10 -5 -17 -32 -15 -32
3 0 16 -46 43 -56 32 -3 -3 -1 -14 5 -24 15 -29 -21 -57 -62 -49 -25 5 -29 4
-19 -6 17 -17 15 -33 -2 -19 -8 6 -18 11 -22 9 -15 -4 -54 13 -54 23 0 5 -4 9
-10 9 -5 0 -10 -9 -10 -20 0 -11 -7 -20 -15 -20 -18 0 -68 22 -76 34 -9 12
-29 -2 -29 -21 0 -12 -6 -14 -27 -9 -16 4 -41 8 -58 10 -16 1 -38 3 -47 4 -10
1 -18 9 -18 18 0 25 -75 12 -98 -16 -16 -20 -21 -21 -41 -10 -13 6 -33 9 -44
6 -15 -3 -30 3 -46 19 -26 28 -41 31 -59 13 -8 -8 -15 -8 -27 2 -27 22 -41 -4
-16 -29 21 -21 27 -51 15 -64 -8 -8 -44 31 -44 48 0 7 -6 12 -12 12 -21 -2
-88 36 -88 49 0 8 9 24 21 36 85 94 109 126 114 149 3 14 21 41 40 60 19 19
35 42 35 51 0 20 85 88 110 88 21 0 70 88 101 185 18 53 20 70 11 90 -7 15
-17 22 -26 19 -8 -3 -17 -1 -21 5 -3 6 -25 11 -49 11 -31 0 -48 6 -62 21 -38
42 -91 54 -209 49 -11 -1 -40 4 -65 10 -144 36 -209 38 -255 10 -18 -11 -36
-28 -40 -38 -22 -54 -23 -72 -4 -108 10 -21 18 -38 16 -39 -9 -7 -74 -25 -90
-25 -11 0 -37 16 -58 35 -27 24 -49 35 -70 35 -20 0 -38 9 -54 26 -14 15 -25
22 -25 15 0 -14 30 -58 87 -127 23 -28 44 -66 48 -86 4 -20 27 -61 55 -96 45
-55 48 -62 37 -86 -7 -14 -16 -26 -22 -26 -15 1 -40 23 -48 43 -15 40 -67 34
-122 -14 -29 -26 -38 -29 -50 -19 -12 10 -21 10 -41 1 -14 -6 -22 -16 -19 -21
3 -6 1 -10 -4 -10 -13 0 -13 2 -1 34 7 18 17 26 34 26 24 0 43 16 32 27 -3 3
-28 1 -55 -4 -31 -6 -54 -6 -59 -1 -6 6 -17 6 -28 -1 -22 -11 -92 -26 -114
-23 -8 1 -27 -3 -42 -7 -16 -6 -42 -5 -67 1 -87 22 -138 -35 -62 -68 l24 -10
-38 -22 c-28 -17 -36 -27 -32 -43 3 -12 0 -22 -8 -25 -7 -3 -15 -19 -19 -35
-6 -32 20 -69 50 -69 9 0 18 -9 21 -20 4 -16 14 -20 49 -20 49 0 50 -1 28 -35
-14 -22 -14 -26 1 -49 10 -14 21 -23 26 -20 5 3 16 -2 25 -10 8 -9 21 -16 29
-16 14 0 28 -38 19 -52 -3 -5 -21 -6 -40 -2 -27 5 -34 3 -34 -9 0 -12 -6 -14
-27 -8 -16 4 -58 6 -95 3 -56 -4 -69 -1 -74 12 -7 17 -34 22 -34 6 0 -5 -11
-10 -24 -10 -14 0 -36 -4 -50 -10 -17 -6 -26 -6 -26 0 0 6 -11 10 -25 10 -14
0 -25 5 -25 10 0 17 -21 11 -52 -15 -24 -20 -33 -23 -49 -14 -12 6 -39 7 -65
3 -35 -5 -44 -3 -42 7 2 10 -9 14 -43 13 -43 -2 -46 -1 -41 22 4 20 0 24 -20
24 -31 0 -78 22 -78 36 0 24 -40 47 -80 46 -41 -2 -44 1 -42 46 1 16 -7 26
-25 33 -22 8 -24 13 -19 43 9 45 -1 48 -146 50 -65 2 -121 5 -125 9 -3 4 12 7
35 7 46 0 173 27 186 40 12 12 -22 27 -83 35 -47 6 -52 9 -38 20 25 18 21 22
-28 29 -42 7 -76 28 -38 24 10 0 37 0 61 0 53 2 56 22 7 52 -20 13 -35 30 -35
41 0 10 -4 19 -10 19 -5 0 -10 6 -10 14 0 8 -12 17 -27 21 -27 8 -27 8 12 16
22 4 130 17 240 28 194 21 374 55 464 89 l44 16 21 -27 c12 -15 30 -39 42 -54
l21 -27 44 17 c24 9 61 19 82 23 32 5 38 10 33 25 -3 11 -9 27 -12 38 -4 13
15 39 73 97 107 108 172 180 212 237 19 26 38 47 42 47 5 0 18 18 29 41 12 22
34 48 51 57 16 9 36 32 44 50 9 17 20 32 25 32 5 0 14 17 20 38 7 20 29 64 48
97 59 98 70 113 167 233 37 45 53 80 49 107 -2 11 3 26 10 35 8 8 24 40 36 70
42 104 51 120 65 120 8 0 15 4 15 9 0 17 61 71 80 71 10 0 25 -7 34 -15z
m2268 -886 c43 -17 78 -35 78 -40 0 -5 6 -9 14 -9 8 0 13 -8 12 -17 0 -11 5
-17 14 -15 17 4 89 -17 107 -31 7 -5 10 -13 8 -18 -8 -12 17 -49 32 -49 9 0
13 -15 13 -43 0 -40 3 -44 35 -57 38 -15 44 -25 20 -34 -21 -8 -19 -45 3 -53
9 -4 20 -11 25 -17 5 -8 10 -7 16 3 5 7 15 10 22 7 9 -5 9 -3 -1 6 -21 19 -43
59 -35 66 3 3 14 1 25 -5 16 -11 20 -8 35 22 12 27 22 35 42 35 25 0 26 1 8
13 -13 10 -15 16 -6 21 7 5 18 1 25 -10 7 -9 18 -14 25 -10 6 4 0 -18 -13 -49
-28 -61 -116 -160 -208 -231 -50 -39 -90 -60 -193 -104 -53 -22 -169 -21 -133
1 10 6 10 9 1 9 -7 0 -13 6 -13 14 0 7 -9 16 -21 19 -16 4 -19 9 -11 24 6 10
12 21 14 25 1 4 -12 23 -31 42 -19 20 -37 46 -39 58 -23 127 9 458 44 458 4 0
43 -14 86 -31z m-5474 -196 c48 -41 36 -51 -25 -20 -55 28 -88 61 -78 77 8 12
50 -10 103 -57z m1772 -152 c0 -20 -62 -44 -105 -42 -23 2 -7 25 25 37 42 15
80 17 80 5z m4270 -5 c0 -2 -7 -9 -15 -16 -12 -10 -15 -10 -15 4 0 9 7 16 15
16 8 0 15 -2 15 -4z m-962 -58 c-5 -15 -56 -29 -64 -17 -3 5 5 13 18 18 33 14
50 13 46 -1z m-3948 -39 c10 -6 -2 -9 -35 -9 -27 -1 -59 -3 -70 -5 -33 -7
-146 9 -146 20 0 6 17 12 38 15 45 6 191 -8 213 -21z m-765 -241 c-11 -6 -22
-15 -25 -19 -3 -4 -32 -13 -65 -19 -162 -29 -202 -33 -210 -21 -7 13 -11 12
115 40 52 11 109 18 127 15 17 -3 34 0 38 6 3 5 14 10 23 10 14 -1 14 -2 -3
-12z m2505 -18 c0 -5 -4 -10 -10 -10 -5 0 -10 5 -10 10 0 6 5 10 10 10 6 0 10
-4 10 -10z m-1833 -21 c-14 -8 -22 -8 -30 0 -8 8 -3 11 19 11 25 -1 27 -2 11
-11z m-1084 -16 c-13 -2 -33 -2 -45 0 -13 2 -3 4 22 4 25 0 35 -2 23 -4z
m2652 -3 c-3 -5 -10 -10 -16 -10 -5 0 -9 5 -9 10 0 6 7 10 16 10 8 0 12 -4 9
-10z m-1418 -56 c-3 -3 -12 -4 -19 -1 -8 3 -5 6 6 6 11 1 17 -2 13 -5z m1233
-67 c0 -5 -10 -7 -22 -3 -13 3 -33 6 -45 6 -13 0 -23 5 -23 10 0 6 10 8 24 4
17 -4 25 -1 30 13 7 17 8 17 22 -1 8 -11 14 -24 14 -29z m-1603 7 c-3 -3 -12
-4 -19 -1 -8 3 -5 6 6 6 11 1 17 -2 13 -5z m3117 -30 c19 -7 22 -34 4 -34 -15
1 -48 24 -48 34 0 8 24 8 44 0z m-2799 -14 c-3 -5 -19 -10 -35 -10 -16 0 -32
5 -35 10 -4 6 10 10 35 10 25 0 39 -4 35 -10z m3442 -166 c-7 -7 -57 15 -57
25 0 5 14 3 31 -6 16 -8 28 -17 26 -19z m-477 -37 c14 -3 35 -15 47 -27 37
-34 48 -20 13 18 -31 33 -9 34 56 1 77 -39 93 -49 132 -82 38 -31 124 -77 147
-77 8 0 15 -6 15 -12 1 -7 24 -31 51 -53 28 -22 56 -45 63 -51 6 -6 26 -18 42
-27 17 -9 36 -23 43 -31 22 -26 -7 -19 -64 14 -27 16 -66 38 -85 47 -19 10
-56 34 -81 55 -26 21 -49 38 -53 38 -3 0 -29 18 -58 40 -29 22 -56 40 -61 40
-4 0 -26 14 -49 30 -51 37 -83 41 -42 5 43 -38 149 -113 176 -125 13 -6 37
-21 53 -33 45 -33 235 -218 235 -229 0 -14 -56 22 -113 73 -29 25 -79 63 -112
84 -33 21 -76 52 -95 70 -49 44 -231 144 -271 149 -22 2 -35 9 -37 20 -2 9 -9
16 -16 16 -16 0 -83 56 -75 64 3 3 20 0 38 -7 29 -11 34 -10 43 7 9 17 12 17
22 4 6 -8 22 -18 36 -21z m530 17 c0 -2 -7 -4 -15 -4 -8 0 -15 4 -15 10 0 5 7
7 15 4 8 -4 15 -8 15 -10z m-1160 -39 c0 -8 -4 -15 -10 -15 -5 0 -10 7 -10 15
0 8 5 15 10 15 6 0 10 -7 10 -15z m1052 -99 c26 -17 48 -37 48 -43 0 -20 -13
-16 -46 15 -17 15 -40 32 -50 38 -21 12 -34 41 -13 29 8 -4 35 -22 61 -39z
m-509 -50 c15 -17 51 -56 80 -86 98 -104 148 -162 184 -211 19 -27 38 -49 43
-49 4 0 11 -11 14 -24 3 -14 15 -27 26 -31 12 -4 22 -19 25 -39 4 -18 19 -46
33 -62 27 -28 112 -192 112 -214 0 -18 -20 0 -31 27 -5 13 -14 21 -19 18 -6
-3 -13 2 -17 12 -3 10 -12 22 -20 26 -7 4 -13 17 -13 27 0 11 -5 20 -10 20 -6
0 -15 11 -20 25 -12 31 -50 87 -67 98 -7 4 -13 16 -13 26 0 10 -9 26 -20 36
-11 10 -20 22 -20 28 0 5 -11 23 -25 41 -14 17 -32 40 -41 51 -21 30 -116 147
-136 169 -10 11 -18 23 -18 27 0 4 -27 34 -60 67 -33 33 -60 63 -60 67 0 12
46 -19 73 -49z m-77 -123 c-7 -7 -26 7 -26 19 0 6 6 6 15 -2 9 -7 13 -15 11
-17z m122 -142 c3 -8 -1 -12 -9 -9 -7 2 -15 10 -17 17 -3 8 1 12 9 9 7 -2 15
-10 17 -17z m52 -67 c0 -8 -4 -14 -10 -14 -5 0 -10 9 -10 21 0 11 5 17 10 14
6 -3 10 -13 10 -21z m625 -4 c3 -5 1 -10 -4 -10 -6 0 -11 5 -11 10 0 6 2 10 4
10 3 0 8 -4 11 -10z m-587 -46 c-10 -10 -28 6 -28 24 0 15 1 15 17 -1 9 -9 14
-19 11 -23z m649 -16 c18 -8 66 -68 54 -68 -15 0 -101 88 -101 103 0 6 9 1 19
-10 11 -12 24 -23 28 -25z m-457 -354 c0 -8 -4 -12 -10 -9 -5 3 -10 10 -10 16
0 5 5 9 10 9 6 0 10 -7 10 -16z m-2270 -134 c0 -6 11 -8 25 -4 15 4 25 2 25
-5 0 -17 -48 -25 -65 -11 -8 7 -12 16 -9 21 7 12 24 11 24 -1z m1790 -120 c0
-5 -5 -10 -11 -10 -5 0 -7 5 -4 10 3 6 8 10 11 10 2 0 4 -4 4 -10z"/>
<path d="M4467 7881 c-4 -17 -14 -32 -25 -35 -19 -6 -42 -45 -42 -71 0 -17 16
-20 25 -5 11 18 27 11 22 -10 -3 -11 -2 -20 3 -20 15 0 32 30 26 46 -3 8 0 27
7 42 13 28 12 82 -2 82 -5 0 -11 -13 -14 -29z"/>
<path d="M4865 5810 c3 -5 10 -10 16 -10 5 0 9 5 9 10 0 6 -7 10 -16 10 -8 0
-12 -4 -9 -10z"/>
<path d="M3015 5410 c3 -5 11 -10 16 -10 6 0 7 5 4 10 -3 6 -11 10 -16 10 -6
0 -7 -4 -4 -10z"/>
<path d="M3085 5391 c-7 -13 5 -19 39 -19 l29 1 -24 13 c-29 16 -36 17 -44 5z"/>
<path d="M5161 5321 c-6 -10 -7 -21 -4 -25 3 -3 1 -6 -5 -6 -19 0 -14 -27 6
-27 20 0 62 35 62 53 0 11 -21 24 -40 24 -5 0 -14 -8 -19 -19z"/>
<path d="M4880 5003 c0 -11 50 -33 74 -33 20 0 20 0 1 14 -25 16 -75 29 -75
19z"/>
<path d="M3591 9064 c0 -11 3 -14 6 -6 3 7 2 16 -1 19 -3 4 -6 -2 -5 -13z"/>
<path d="M4260 8891 c0 -25 6 -27 13 -6 4 8 2 17 -3 20 -6 4 -10 -3 -10 -14z"/>
<path d="M3223 3862 c-8 -5 -8 -12 2 -26 13 -18 41 -14 30 5 -4 5 -1 9 5 9 6
0 8 5 5 10 -7 12 -25 13 -42 2z"/>
<path d="M3227 3765 c-19 -49 63 -166 88 -125 10 16 -17 90 -36 101 -10 5 -24
16 -32 24 -13 12 -16 12 -20 0z"/>
<path d="M3942 3429 c2 -7 10 -15 17 -17 8 -3 12 1 9 9 -2 7 -10 15 -17 17 -8
3 -12 -1 -9 -9z"/>
</g>
</svg>
